<svg version="1.1" xmlns="http://www.w3.org/2000/svg" viewBox="280 50 460 460" fill="#000" stroke-width="12" stroke-linejoin="round" stroke-linecap="round">
<path d="
M583.316040,328.372864
	C565.585938,340.271454 548.183777,352.012848 530.724060,363.668060
	C519.366516,371.249786 512.662415,370.026001 505.176147,358.842346
	C474.870087,313.568390 444.606384,268.265991 414.393433,222.929901
	C407.047089,211.906281 408.281128,206.423172 419.404297,198.934479
	C483.391693,155.854828 547.383240,112.781349 611.380798,69.716850
	C614.006287,67.950127 616.667419,66.229492 619.378967,64.598816
	C626.395935,60.378883 632.922485,61.735794 637.572998,68.582596
	C650.679565,87.879066 663.746033,107.203217 676.732727,126.580505
	C694.728027,153.431152 712.641296,180.336853 730.574280,207.229233
	C732.507812,210.128799 734.718506,212.915817 735.234009,216.523254
	C736.201111,223.290741 733.126892,228.044800 727.706970,231.675125
	C710.960632,242.891983 694.245972,254.156219 677.497925,265.370514
	C646.213013,286.318420 614.913208,307.244141 583.316040,328.372864
M557.008728,152.563232
	C518.244751,178.517746 479.515869,204.525146 440.660736,230.342453
	C436.901886,232.840012 436.310059,234.562271 438.919189,238.420883
	C464.213318,275.827759 489.319183,313.361877 514.492126,350.850739
	C518.804443,357.272766 518.856445,357.287292 525.517517,352.836792
	C590.086914,309.696045 654.648987,266.544373 719.209717,223.390701
	C724.151184,220.087723 724.231995,219.564423 720.734131,214.320389
	C698.358093,180.774490 675.990356,147.223053 653.586731,113.695602
	C649.719482,107.908241 645.693542,102.226967 641.467346,96.100067
	C613.217224,114.986664 585.413025,133.575119 557.008728,152.563232
M576.332764,108.058792
	C574.026917,114.544670 576.264954,119.419846 581.786255,119.736969
	C585.747925,119.964500 588.487793,118.074745 589.899658,114.384354
	C591.249084,110.857407 589.711792,108.164749 587.014771,106.106438
	C583.251587,103.234352 579.850342,104.463150 576.332764,108.058792
M608.627075,92.807106
	C607.340027,91.649010 605.785889,91.141899 604.099121,91.065018
	C600.194580,90.887054 597.222229,92.303856 596.326721,96.368538
	C595.514038,100.057335 596.269592,103.508942 600.014038,105.163475
	C603.695618,106.790245 607.272217,106.092972 609.650635,102.593109
	C611.731079,99.531792 611.239746,96.341064 608.627075,92.807106
M626.005676,77.217934
	C619.208069,77.156738 614.959961,81.582619 616.969971,86.736481
	C618.310364,90.173500 620.820923,92.092377 624.672058,91.817993
	C628.251465,91.562973 630.684753,89.630592 631.445557,86.211372
	C632.352905,82.133636 630.722534,79.068207 626.005676,77.217934
z"/>
<path d="
M304.923645,368.038879
	C321.320740,335.983551 345.256592,310.706726 372.044098,287.852478
	C383.709930,277.899536 396.164978,268.990112 408.891388,260.431061
	C412.711578,257.861786 414.959473,257.528473 417.539795,261.930481
	C420.900299,267.663544 424.752441,273.138702 428.746521,278.459473
	C431.386047,281.975708 430.991425,283.957031 427.185028,286.252197
	C411.348297,295.801514 395.973175,306.049988 381.602112,317.735321
	C354.680847,339.625397 331.748962,364.823151 316.829071,396.546661
	C309.671692,411.765106 305.263062,427.720917 305.313538,444.697357
	C305.337036,452.604218 306.978912,460.199280 309.741577,467.590729
	C310.280914,469.033722 311.639923,470.437073 310.558167,472.264008
	C308.154724,472.028931 307.381256,469.943848 306.232300,468.437683
	C290.925110,448.371460 287.677643,425.933594 293.030396,401.728699
	C295.598358,390.116455 299.661987,379.075928 304.923645,368.038879
z"/>
<path d="
M359.577271,380.614655
	C381.412048,349.281433 409.567963,325.027069 439.935089,303.042450
	C442.931763,300.872955 444.477570,301.608612 446.250153,304.444153
	C449.072052,308.958221 452.029602,313.412231 455.262512,317.637024
	C457.968872,321.173798 457.850342,323.161102 453.730560,325.762024
	C428.271088,341.835510 405.003357,360.660736 384.812103,383.053253
	C365.524597,404.443512 349.798859,427.916443 343.894989,456.808472
	C342.113922,465.524506 341.895233,474.296936 342.172943,483.131195
	C342.239105,485.235016 342.850555,487.394318 341.942078,489.533478
	C340.060455,489.518860 340.030060,487.941345 339.541412,486.828003
	C328.467468,461.598694 331.802124,436.800140 341.830902,412.221863
	C346.383301,401.065002 352.655640,390.862244 359.577271,380.614655
z"/>
<path d="
M470.543671,363.568970
	C451.117096,375.413666 432.772949,388.113129 417.334442,404.494049
	C403.715607,418.944275 392.176025,434.726685 387.939972,454.709930
	C386.516968,461.422882 387.294098,468.223419 387.624359,475.542236
	C384.031769,473.548370 383.038208,470.299622 381.879181,467.398193
	C375.655914,451.819794 378.866058,436.947601 385.877350,422.568207
	C397.024017,399.707581 414.563812,382.288910 434.197632,366.754974
	C444.133392,358.894043 454.658752,351.848633 465.164429,344.771240
	C469.190674,342.058899 472.008911,341.706726 474.078918,346.658478
	C474.205658,346.961639 474.425507,347.226501 474.606720,347.506104
	C481.106201,357.535034 481.106262,357.535004 470.543671,363.568970
z"/>
<path d="
M660.718628,295.777283
	C633.512939,316.315674 605.211914,334.439026 574.993347,349.551575
	C606.246887,323.374512 638.669189,298.943329 676.290649,279.889862
	C675.186890,285.178314 671.645996,286.639374 669.090759,288.881622
	C666.464233,291.186432 663.705811,293.340820 660.718628,295.777283
z"/>
<path d="
M485.356689,135.317764
	C502.861145,123.188210 520.211365,111.507050 540.183228,102.742455
	C540.027161,106.197823 537.888794,107.367279 536.257568,108.737053
	C518.479675,123.665047 499.011292,136.167679 479.202515,148.148590
	C470.661377,153.314514 461.870239,158.069473 453.148590,162.932068
	C451.802032,163.682816 450.523712,165.081940 447.422363,163.829605
	C459.994659,153.657181 472.336365,144.348694 485.356689,135.317764
z"/>
<path d="
M396.580841,178.291443
	C421.292725,159.589493 445.817749,141.186844 473.199463,127.083069
	C476.789917,125.233696 480.275726,122.842690 484.645447,122.670509
	C485.141510,125.339577 483.065247,126.045647 481.799805,127.111465
	C463.627838,142.416214 443.361389,154.627823 422.966309,166.618134
	C415.074310,171.257843 406.921997,175.458878 398.820557,179.731277
	C398.089691,180.116714 395.080292,183.040298 396.580841,178.291443
z"/>
<path d="
M591.731384,352.691101
	C603.267334,345.068420 614.339600,337.334259 627.584656,333.533875
	C602.859741,357.223053 573.812561,374.463745 543.829041,390.403748
	C558.619629,376.505524 574.833191,364.455811 591.731384,352.691101
z"/>
<path d="
M336.515991,287.513428
	C334.580261,288.273285 333.152740,289.749908 331.137512,288.909027
	C331.061279,286.586761 332.727203,285.532501 334.011047,284.345245
	C344.279907,274.848816 355.259583,266.225800 366.718018,258.224670
	C369.679779,256.156555 373.084808,253.711121 376.501282,257.356293
	C378.863831,259.876984 377.081299,263.836487 372.300537,267.065613
	C360.985809,274.708008 349.056793,281.287506 336.515991,287.513428
z"/>
<path d="
M473.686523,391.667114
	C479.035675,387.439545 484.031281,383.326721 489.240784,379.505554
	C491.876892,377.571899 495.209900,376.171234 497.507324,379.755188
	C499.686279,383.154297 497.470673,385.630981 494.608215,387.576477
	C485.664368,393.655426 476.122284,398.641479 466.287354,403.085419
	C465.300812,403.531189 464.233093,404.280487 462.133759,403.072205
	C465.024536,398.374847 469.786011,395.640656 473.686523,391.667114
z"/>
<path d="
M361.058899,238.057709
	C366.652527,233.026566 372.063721,228.333176 377.991516,224.279465
	C380.648376,222.462555 383.532104,221.240417 385.975525,224.300186
	C388.549591,227.523590 386.409576,230.074203 383.838562,231.845337
	C375.450867,237.623611 366.492706,242.403275 357.070892,246.287842
	C356.349731,246.585175 355.466553,246.875443 354.500885,245.874115
	C354.922852,242.091293 358.525024,240.708954 361.058899,238.057709
z"/>
<path d="
M475.639099,432.679749
	C468.854645,436.412781 462.439209,440.085480 455.153900,441.789886
	C453.901642,439.002747 455.665466,437.869141 456.815582,436.627472
	C460.769958,432.358582 465.322815,428.757843 469.947052,425.256134
	C472.472137,423.344025 475.309906,421.874268 477.831604,424.942291
	C480.341614,427.996094 478.610596,430.461090 475.639099,432.679749
z"/>
</svg>
